<svg width="192" height="19" viewBox="0 0 192 19" fill="none" xmlns="http://www.w3.org/2000/svg">
<path fill-rule="evenodd" clip-rule="evenodd" d="M98.5671 0.273419C94.8675 0.249251 91.8725 1.18988 89.4566 3.02265C87.0154 4.85644 85.8078 7.08522 85.8078 9.85916C85.8078 12.1379 87.0154 14.2192 88.9782 15.854C91.3442 17.8355 94.6154 18.727 98.6419 18.727C100.328 18.727 102.065 18.4544 103.374 18.1078C105.312 17.6126 107.878 16.4729 108.658 14.7885L108.608 12.2873C108.558 10.5533 108.684 10.4787 110.496 10.4543V9.85916H103.676V10.4543C104.381 10.4543 104.858 10.4296 105.286 10.7018C105.689 10.9991 105.588 12.3364 105.588 12.8568L105.563 14.3677C104.984 15.4577 103.65 16.0519 102.694 16.4236C101.813 16.7706 100.202 17.1418 98.6928 17.1665C96.1758 17.1913 94.2129 16.4976 92.5771 15.4823C90.916 14.4167 89.3055 12.2131 89.3055 9.46339C89.3055 6.81291 91.0172 4.63262 93.0306 3.27013C94.3392 2.37891 96.5533 1.61082 98.7427 1.63601C100.631 1.66118 102.393 2.10625 103.676 2.82526C105.136 3.61778 106.696 5.22801 107.274 6.4166L107.853 6.19367L106.922 2.30478C105.765 1.61094 104.329 1.11514 102.971 0.793902C101.486 0.44648 99.9761 0.298602 98.5671 0.273419ZM10.0969 0.684405C7.52394 0.693557 4.96095 0.730792 0.317913 0.711901L0.292969 1.28198C0.922039 1.28198 1.14891 1.25693 1.52619 1.554C1.87869 1.85208 1.92878 2.17314 1.92878 3.26374V14.9299C1.92878 15.9207 2.00424 16.9365 1.77762 17.2088C1.4507 17.5805 1.224 17.6548 0.418686 17.6301V18.2242H9.98214C12.5995 18.2242 16.9028 18.1502 18.6641 16.788C19.3439 16.4166 20.5765 15.2772 20.5513 13.3449C20.5513 10.9918 19.5199 10.2731 18.5888 9.75309C17.7582 9.30749 16.4496 8.96093 14.9145 8.71311C16.1475 8.29228 16.4242 8.16779 17.2044 7.57345C18.0097 7.00347 18.5389 5.86447 18.5389 4.72503C18.5389 1.7523 15.2667 0.811706 12.7504 0.687842C11.8129 0.68156 10.9545 0.681364 10.0969 0.684405ZM191.656 0.711901L185.415 0.736453V1.25694C186.446 1.30628 186.749 1.33144 186.95 2.04945C187.05 2.32235 187.026 2.94075 187.026 3.8078V15.1278C187.026 17.1836 187.203 17.6546 185.541 17.6546V18.2242H191.706L191.682 17.6546C189.996 17.6546 190.07 17.0101 190.07 15.1278V3.8078C190.07 1.77664 190.02 1.25694 191.656 1.25694V0.711901ZM28.2774 0.736943V1.38067C28.8817 1.38067 29.1337 1.4057 29.4857 1.60409C29.8886 1.85181 30.392 2.99084 30.9958 4.15495L38.5458 18.2242H41.0876C42.6478 15.1777 45.1641 10.2239 47.102 6.48338C48.4105 4.00681 49.3673 2.02527 49.7446 1.55499C49.9712 1.28209 50.6003 1.38067 51.0027 1.38067V0.736943L45.7181 0.761496V1.38067C45.7685 1.38067 47.2531 1.18303 47.102 2.12359C46.9762 2.86677 41.0875 13.7164 40.3577 15.4504L34.4934 4.57674C34.0658 3.78321 33.7135 3.18899 33.5376 2.71871C33.0592 1.60394 33.7895 1.38067 34.7962 1.38067V0.736943H28.2774ZM162.602 0.75364C162.226 0.750718 161.826 0.75208 161.401 0.754149C160.834 0.756886 160.223 0.761515 159.569 0.761515H151.517V1.30655C152.624 1.30655 153.077 1.62877 153.077 2.89157V4.20456V13.6666V16.6883C153.077 17.6293 152.372 17.6043 151.517 17.5795V18.2242H157.808V17.5795C156.776 17.5795 156.172 17.4814 156.146 16.2675V11.1152C156.826 11.1645 157.43 11.1152 158.487 11.1152C158.865 11.1152 160.877 11.1401 161.482 11.1152C163.772 11.1152 164.829 13.7903 166.063 15.6729C167.094 17.2581 166.641 18.2242 173.235 18.2242C173.235 18.0756 173.185 17.7532 173.185 17.6046C170.366 17.6293 169.837 15.9695 168.629 13.8394C167.497 11.9076 167.194 10.6445 164.275 10.3222C168.704 9.50521 169.863 7.52362 169.863 5.2691C169.837 2.99122 168.126 1.57822 165.332 0.958904C164.639 0.805965 163.73 0.762411 162.602 0.75364ZM61.2956 0.761003V1.30604C62.1764 1.30604 62.4282 1.38041 62.6799 1.72783C62.9313 2.04907 62.9314 2.59407 62.9314 3.56081V11.9568V16.292C62.9314 17.4317 62.4786 17.6294 61.3963 17.6541V18.2242H77.2257L79.0625 14.6078L78.4843 14.3844C77.88 15.3506 76.4959 16.292 74.3063 16.292H69.7261H65.9765V2.79236C65.9765 1.97466 66.1277 1.72784 66.3287 1.52945C66.6308 1.28173 66.7818 1.33122 67.562 1.30604V0.761003H61.2956ZM128.363 0.761512L121.04 14.4841C120.386 15.7228 120.135 16.1438 119.833 16.7134C119.48 17.3077 119.278 17.7045 118.07 17.7293V18.2242H123.531L123.557 17.6551C122.575 17.6799 122.148 17.6049 122.123 16.7379C122.123 16.4653 122.374 16.0204 122.752 15.3517L123.783 13.5679H134.352L135.612 15.6729C136.442 17.0355 136.215 17.5311 134.73 17.6055V18.2242H141.273V17.5555C139.713 17.5555 139.789 17.1352 138.404 14.6334L130.679 0.761512H128.363ZM159.44 2.02148C161.374 2.01004 163.335 2.10535 164.577 2.69319C165.634 3.18865 166.515 3.75842 166.515 5.49251C166.515 7.9447 164.98 8.58887 163.822 9.0097C161.784 9.52973 158.436 9.35615 156.146 9.38092V2.07352C157.128 2.07352 158.279 2.02834 159.44 2.02148ZM10.3279 2.16485C11.8698 2.16284 13.3795 2.22317 14.2101 2.74279C15.292 3.43663 15.5436 3.93227 15.5436 4.97252C15.5436 5.61601 15.0156 6.73182 14.4621 7.15266C13.1532 8.19311 10.8127 8.24224 9.07618 8.24224H4.92354V2.1732H8.79881C9.2959 2.1732 9.8139 2.16556 10.3279 2.16485ZM128.967 3.3875L133.422 11.6107H124.74L128.967 3.3875ZM10.1932 9.79581C12.7516 9.78898 14.568 9.88605 15.8454 10.8181C16.5249 11.3134 17.1794 12.1803 17.1794 13.2212C17.1794 16.0943 13.5307 16.2925 9.93176 16.2925H4.92354V9.80269C6.28238 9.80269 7.69202 9.82745 9.05124 9.80269C9.4476 9.79957 9.82768 9.79677 10.1932 9.79581Z" fill="black"/>
</svg>
