<svg width="149" height="37" viewBox="0 0 149 37" fill="none" xmlns="http://www.w3.org/2000/svg">
<g clip-path="url(#clip0_143_127)">
<path d="M0.436098 3.404H0V0.517999H11.3385V3.404H10.9024C10.6117 1.554 9.81219 1.036 8.0678 1.036H6.54146V10.804C6.54146 11.766 6.3961 12.654 8.35854 12.654V13.098C5.37854 12.95 2.90732 13.098 2.90732 13.098V12.654H3.12537C4.36098 12.654 4.65171 12.136 4.65171 10.804L4.72439 1.11H3.27073C1.52634 1.11 0.726829 1.48 0.436098 3.404ZM18.9702 0.517999V0.961999C17.9527 0.961999 17.1532 0.961999 17.1532 2.812L17.0805 6.142H23.4039V2.812C23.4039 1.554 23.2585 0.961999 21.5868 0.961999V0.517999C21.5868 0.517999 24.3488 0.665999 27.038 0.517999V0.961999C25.5844 0.887999 25.2937 1.406 25.2937 2.812V10.434C25.2937 12.136 25.5117 12.58 26.9654 12.58H27.1107V13.024C24.7849 12.876 21.7322 13.024 21.7322 13.024V12.58C22.1683 12.506 23.5493 12.802 23.4766 11.248V6.66H17.1532V11.248C17.1532 12.506 17.7346 12.506 18.8249 12.654H18.9702V13.098C15.4815 12.95 13.5917 13.098 13.5917 13.098V12.654H13.6644C15.118 12.58 15.2634 11.988 15.2634 10.434V2.812C15.2634 1.406 14.9727 0.961999 13.519 0.961999V0.517999C13.519 0.517999 16.1356 0.591999 18.9702 0.517999ZM38.1585 3.404C37.7951 1.184 36.8502 1.036 34.9605 1.036H33.5068C33.0707 1.036 32.998 1.036 32.998 1.628V6.142H33.5068C35.76 6.142 35.978 5.106 36.1234 3.774H36.5595C36.5595 4.588 36.4868 5.402 36.4868 6.364C36.4868 7.104 36.5595 7.918 36.5595 8.732H36.1234C35.8327 6.808 35.0332 6.66 32.998 6.66V9.916C32.998 11.914 33.4341 12.506 35.6873 12.432C37.5771 12.432 38.8127 12.136 39.1034 9.916H39.5395L39.3941 12.95C37.5771 12.95 35.76 12.876 33.8702 12.876C32.4166 12.876 30.4541 12.95 29.4366 12.95V12.58C31.181 12.58 31.181 12.136 31.181 9.398V4.144C31.181 1.48 31.181 0.961999 29.4366 0.961999V0.517999C30.5995 0.517999 32.0532 0.591999 33.3615 0.591999C35.2512 0.591999 37.0683 0.517999 38.6673 0.517999V3.404H38.1585ZM55.4571 3.404C55.4571 4.884 54.0761 5.772 52.6951 6.216C54.8029 6.438 56.838 7.622 56.838 9.768C56.838 12.58 54.2215 13.024 52.1137 13.024C51.0234 13.024 49.2063 12.95 48.2615 12.95C47.3166 12.95 46.3717 12.95 45.4268 13.024V12.58C47.1712 12.58 47.1712 12.136 47.1712 9.398V3.996C47.1712 1.332 47.1712 0.813999 45.4268 0.813999V0.369999C46.5898 0.369999 46.9532 0.443999 48.2615 0.443999C49.5698 0.443999 50.0785 0.369999 50.878 0.369999C52.9132 0.369999 55.4571 0.887999 55.4571 3.404ZM49.6424 0.961999C49.2063 0.961999 49.1337 1.036 49.1337 1.554V6.068H50.3693C51.9683 6.068 53.3493 5.624 53.3493 3.478C53.3493 1.776 52.4771 0.887999 50.8054 0.887999C50.5146 0.961999 50.0785 0.961999 49.6424 0.961999ZM49.1337 9.99C49.1337 11.988 49.5698 12.506 51.8229 12.506C53.64 12.506 54.4395 11.396 54.4395 9.546C54.4395 6.956 52.8405 6.512 50.4419 6.512H49.1337V9.99ZM67.8858 3.404C67.5224 1.184 66.5776 1.036 64.6878 1.036H63.2341C62.798 1.036 62.7254 1.036 62.7254 1.628V6.142H63.2341C65.4873 6.142 65.7054 5.106 65.8507 3.774H66.2868C66.2868 4.588 66.2141 5.402 66.2141 6.364C66.2141 7.104 66.2868 7.918 66.2868 8.732H65.8507C65.56 6.734 64.7605 6.66 62.7254 6.66V9.916C62.7254 11.914 63.1615 12.506 65.4146 12.432C67.3044 12.432 68.54 12.136 68.8307 9.916H69.2668L69.0488 13.024C67.2317 13.024 65.4146 12.95 63.5249 12.95C62.0712 12.95 60.1088 13.024 59.0912 13.024V12.58C60.8356 12.58 60.8356 12.136 60.8356 9.398V4.07C60.8356 1.406 60.8356 0.887999 59.0912 0.887999V0.517999C60.2541 0.517999 61.7078 0.591999 63.0161 0.591999C64.9058 0.591999 66.7229 0.517999 68.3219 0.517999V3.404H67.8858ZM77.3346 0.517999C79.4424 0.517999 81.5502 1.036 81.5502 3.626C81.5502 5.402 80.3873 6.438 78.4249 6.882L82.059 11.544C82.6405 12.284 83.0039 12.58 84.0215 12.654V13.098C83.44 13.098 82.7859 13.024 82.2044 13.024C81.7683 13.024 81.3322 13.098 80.8234 13.098C80.5327 12.654 80.2419 12.284 79.9512 11.914L76.8985 7.918C76.3898 7.252 76.2444 7.178 75.5902 7.178V10.36C75.5902 12.136 75.6629 12.506 77.4073 12.58V13.024C76.5351 13.024 75.6629 12.95 74.718 12.95C73.7732 12.95 72.901 12.95 71.9561 13.024V12.58C73.7005 12.58 73.7005 12.062 73.7005 9.398V4.07C73.7005 1.406 73.7005 0.961999 71.9561 0.887999V0.517999C72.901 0.517999 73.8459 0.591999 74.718 0.591999C75.5902 0.591999 76.4624 0.517999 77.3346 0.517999ZM75.6629 6.586H77.0439C78.4249 6.586 79.4424 5.994 79.4424 3.922C79.4424 2.294 78.5702 1.036 76.8985 1.036H76.099C75.7356 1.036 75.7356 1.11 75.7356 1.628V6.586H75.6629ZM88.8912 7.252L92.1619 3.774C93.3249 2.516 93.6156 2.072 93.6156 1.628C93.6156 1.11 93.1795 1.036 92.2346 1.036V0.517999C92.9615 0.517999 93.6883 0.591999 94.4151 0.591999C95.0693 0.591999 95.9415 0.517999 96.5956 0.517999V0.961999C95.578 0.961999 95.2146 1.184 94.4151 1.998L91.0717 5.55L94.8512 10.138C96.5956 12.284 96.8863 12.506 98.1219 12.58V13.024C97.1044 13.024 95.9415 12.95 94.9966 12.95C94.0517 12.95 93.2522 13.024 92.3073 13.024V12.58C93.5429 12.506 93.6883 12.284 93.6883 11.914C93.6883 11.544 93.3976 11.248 92.7434 10.434L89.9088 6.882L88.9639 7.918V10.36C88.9639 12.136 89.0366 12.506 90.781 12.58V13.024C89.9088 13.024 89.0366 12.95 88.0917 12.95C87.1468 12.95 86.2746 12.95 85.3298 13.024V12.58C87.0741 12.58 87.0741 12.062 87.0741 9.398V4.07C87.0741 1.406 87.0741 0.961999 85.3298 0.887999V0.517999C86.2746 0.517999 87.2195 0.591999 88.0917 0.591999C88.9639 0.591999 89.8361 0.591999 90.781 0.517999V0.961999C89.0366 1.036 88.9639 1.554 88.9639 3.33L88.8912 7.252ZM108.298 3.404C107.934 1.184 106.989 1.036 105.1 1.036H103.646C103.21 1.036 103.137 1.036 103.137 1.628V6.142H103.646C105.899 6.142 106.117 5.106 106.262 3.774H106.699C106.699 4.588 106.626 5.402 106.626 6.364C106.626 7.104 106.699 7.918 106.699 8.732H106.262C106.044 6.734 105.172 6.66 103.137 6.66V9.916C103.137 11.914 103.573 12.506 105.826 12.432C107.716 12.432 108.952 12.136 109.242 9.916H109.679L109.533 12.95C107.716 12.95 105.899 12.876 104.009 12.876C102.556 12.876 100.593 12.95 99.5756 12.95V12.58C101.32 12.58 101.32 12.136 101.32 9.398V4.07C101.32 1.406 101.32 0.887999 99.5756 0.887999V0.517999C100.739 0.517999 102.192 0.591999 103.5 0.591999C105.39 0.591999 107.207 0.517999 108.806 0.517999V3.404H108.298ZM115.566 4.07V9.916C115.566 11.914 115.929 12.432 118.4 12.432C120.508 12.432 121.744 11.988 122.035 9.62H122.471L122.325 12.95C120.508 12.95 118.182 12.876 116.365 12.876C114.912 12.876 112.949 12.95 111.932 12.95V12.58C113.676 12.58 113.676 12.136 113.676 9.398V4.07C113.676 1.406 113.676 0.887999 111.932 0.887999V0.517999C112.877 0.517999 113.821 0.591999 114.694 0.591999C115.566 0.591999 116.511 0.591999 117.383 0.517999V0.961999C115.711 0.887999 115.566 1.406 115.566 4.07ZM133.228 3.404C132.864 1.184 131.919 1.036 130.03 1.036H128.576C128.14 1.036 128.067 1.036 128.067 1.628V6.142H128.576C130.829 6.142 131.047 5.106 131.193 3.774H131.629C131.629 4.588 131.556 5.402 131.556 6.364C131.556 7.104 131.629 7.918 131.629 8.732H131.193C130.975 6.734 130.102 6.66 128.067 6.66V9.916C128.067 11.914 128.503 12.506 130.757 12.432C132.646 12.432 133.882 12.136 134.173 9.916H134.609L134.463 12.95C132.646 12.95 130.829 12.876 128.939 12.876C127.486 12.876 125.523 12.95 124.506 12.95V12.58C126.25 12.58 126.25 12.136 126.25 9.398V4.07C126.25 1.406 126.25 0.887999 124.506 0.887999V0.517999C125.669 0.517999 127.122 0.591999 128.431 0.591999C130.32 0.591999 132.138 0.517999 133.737 0.517999V3.404H133.228ZM139.842 13.024V12.58C141.586 12.506 141.659 12.21 141.659 10.36V8.288L138.461 3.034C137.516 1.48 137.225 1.036 135.99 0.961999V0.517999C136.789 0.517999 137.807 0.591999 138.679 0.591999C139.551 0.591999 140.423 0.517999 141.296 0.517999V0.961999C140.351 0.961999 139.915 1.184 139.915 1.628C139.915 1.998 140.06 2.294 140.278 2.664L143.258 7.4L145.802 3.182C146.238 2.516 146.311 2.146 146.311 1.776C146.311 1.184 145.802 1.036 145.075 0.961999V0.517999C145.729 0.517999 146.311 0.591999 146.965 0.591999C147.546 0.591999 148.273 0.517999 148.927 0.517999V0.961999C147.91 0.961999 147.546 1.406 146.892 2.516L143.549 8.066V10.36C143.549 12.136 143.694 12.506 145.366 12.58V13.024C144.494 13.024 143.476 12.95 142.604 12.95C141.732 12.95 140.714 13.024 139.842 13.024Z" fill="#002D59"/>
<path d="M62.6529 36.778C61.1266 36.778 59.8183 35.52 59.8183 33.892C59.8183 32.264 61.0539 31.006 62.6529 31.006C64.1792 31.006 65.4875 32.264 65.4875 33.892C65.4149 35.52 64.1792 36.778 62.6529 36.778ZM62.6529 31.524C61.4173 31.524 60.3271 32.634 60.3271 33.892C60.3271 35.224 61.3446 36.26 62.6529 36.26C63.8885 36.26 64.9788 35.15 64.9788 33.892C64.9061 32.634 63.8885 31.524 62.6529 31.524ZM54.7305 36.704V31.08H55.3119V36.186H57.8558V36.704H54.7305ZM72.3924 36.704L68.7583 31.968V36.704H68.2495V31.08H68.7583L72.3924 35.816V31.08H72.9012V36.704H72.3924ZM77.8436 36.704H76.2446V31.08H77.8436C79.4427 31.08 80.751 32.264 80.751 33.892C80.751 35.52 79.4427 36.704 77.8436 36.704ZM77.771 31.598H76.7534V36.26H77.6256C79.0793 36.26 80.1695 35.372 80.1695 33.966C80.2422 32.634 79.2246 31.598 77.771 31.598ZM86.0568 36.778C84.5305 36.778 83.2222 35.52 83.2222 33.892C83.2222 32.264 84.4578 31.006 86.0568 31.006C87.5832 31.006 88.8914 32.264 88.8914 33.892C88.8914 35.52 87.6558 36.778 86.0568 36.778ZM86.0568 31.524C84.8212 31.524 83.731 32.634 83.731 33.892C83.731 35.224 84.7485 36.26 86.0568 36.26C87.2924 36.26 88.3827 35.15 88.3827 33.892C88.3827 32.634 87.2924 31.524 86.0568 31.524ZM95.869 36.704L92.2349 31.968V36.704H91.7261V31.08H92.2349L95.869 35.816V31.08H96.3778V36.704H95.869ZM54.7305 22.422H96.4505V23.014H54.7305V22.422Z" fill="#002D59"/>
</g>
<defs>
<clipPath id="clip0_143_127">
<rect width="149" height="37" fill="white"/>
</clipPath>
</defs>
</svg>
