<svg width="125" height="41" viewBox="0 0 125 41" fill="none" xmlns="http://www.w3.org/2000/svg">
<path d="M23.7661 1.5237H22.2042C16.2419 1.48255 1.39818 2.7164 1.39818 11.4331C1.39818 15.8325 5.96224 17.6828 9.78568 17.6828C10.3206 17.6828 10.8964 17.6419 11.4721 17.601C14.3094 13.9414 17.6807 10.6935 21.5464 8.1026C25.288 5.5526 31.4557 2.09948 36.143 2.09948C37.2945 2.09948 38.7336 2.92187 38.7336 4.19635C38.7336 8.43125 29.7284 13.9823 26.1104 15.5039C22.5326 17.025 18.5443 18.0531 14.6792 18.5461C12.5003 21.6307 9.78594 25.4135 9.78594 29.3198C9.78594 30.676 10.8966 31.4164 12.1711 31.4164C17.3937 31.4164 25.2471 26.6883 25.2471 20.8495C25.2471 19.7807 24.4247 19.2049 23.4378 19.2049C19.5724 19.2049 15.337 22.9055 13.5693 26.1534L13.3227 26.1125C14.4326 22.0417 19.5315 18.1359 23.6844 18.1359C25.4529 18.1359 26.8919 19.4516 26.8919 21.2609C26.8919 22.7411 26.3161 24.0565 25.6992 25.3312C27.2615 24.5505 28.8242 23.7273 30.3453 22.8641L35.7318 16.4086L39.0622 12.4203C40.707 10.4872 44.6958 5.67656 47.4922 5.67656C48.1091 5.67656 48.4786 6.21146 48.4786 6.78646C48.4786 12.4612 38.7747 18.8346 34.2107 21.219L33.6349 21.9594C35.3206 21.219 37.007 20.3146 38.8568 20.3146C39.7617 20.3146 40.707 20.9315 40.707 21.9185C40.707 22.4943 40.5013 23.07 40.1729 23.5224L35.074 30.7589C34.9919 30.8818 34.8682 31.0466 34.8682 31.2109C34.8682 31.2932 34.9919 31.4164 35.1148 31.4164C36.6776 31.4164 39.8844 28.7031 41.0771 27.675C42.9685 24.262 46.9984 20.3146 51.1513 20.3146C52.7141 20.3146 53.906 21.3424 53.906 22.9464C53.906 24.0562 53.4953 25.0432 53.0016 25.9893C56.949 23.9328 60.7732 21.3016 63.5279 17.8065L66.1187 14.5169L68.75 14.5578L62.5 22.6169C63.857 21.6716 65.6247 20.6026 67.3516 20.6026C68.0919 20.6026 68.8325 21.3013 68.8325 22.0411C68.8325 22.3703 68.6682 22.6995 68.5031 22.987L63.4453 30.3883C63.3635 30.4698 63.3224 30.594 63.3224 30.6758C63.3224 30.8812 63.487 31.0052 63.6516 31.0052C65.5844 31.0052 67.7216 28.9495 69.2021 27.7979C71.5456 24.4266 75.2057 20.3146 79.6872 20.3146C81.126 20.3146 82.2776 21.0549 82.8125 22.3706L84.0044 20.6849H86.6359L79.6458 30.3474C79.5227 30.4703 79.4401 30.676 79.4401 30.8411C79.4401 31.0878 79.6458 31.1698 79.8513 31.1698C82.5654 31.1698 88.8562 23.3987 89.8846 20.8078C89.5555 20.6029 89.4325 20.3555 89.4325 19.9862C89.4325 18.9581 90.2958 17.3135 91.5292 17.3135C92.187 17.3135 92.4341 18.0943 92.4341 18.6289C92.4341 19.1638 92.3102 19.6568 92.1461 20.1917C93.0096 20.1917 94.9833 20.1917 94.9833 21.4661C94.9833 21.9594 94.7779 22.4115 94.4896 22.7818L89.5963 29.9357C89.4328 30.1417 89.2677 30.4297 89.2677 30.7172C89.2677 30.9646 89.474 31.0878 89.72 31.0878C92.5573 31.0878 95.5182 28.0445 97.2862 26.0302C99.2591 23.1927 102.303 20.068 106.044 20.068C107.524 20.068 108.552 21.0961 108.922 22.494L122.327 4.81276L125 4.85416L106.62 29.1133C106.333 29.4841 105.962 29.9773 105.962 30.4703C105.962 30.7586 106.168 31.0055 106.455 31.0055C109.169 31.0055 112.87 26.2768 114.309 24.2211L114.638 24.3448C112.911 27.4693 109.293 32.4034 105.263 32.4034C104.276 32.4034 103.618 31.6221 103.618 30.6359C103.618 30.4302 103.66 30.1836 103.701 29.9779C102.097 31.0469 100.411 32.2398 98.4372 32.2398C97.1628 32.2398 95.8883 31.4995 95.8883 30.101C95.8883 29.649 95.97 29.156 96.0938 28.7036C94.0789 30.225 91.4891 31.9932 88.8568 31.9932C87.9521 31.9932 87.1711 31.4169 87.1711 30.4708C87.1711 29.6078 87.5823 28.9083 88.076 28.2096L92.4344 22.0417C92.5575 21.8779 92.7638 21.6721 92.7638 21.5075C92.7638 21.2193 92.1464 21.2193 91.9409 21.2193C91.8586 21.2193 91.7766 21.2193 91.6948 21.2193C89.6799 24.7971 83.3469 32.2805 78.9479 32.2805C78.0846 32.2805 77.2622 31.6638 77.2622 30.7591C77.2622 30.5122 77.3026 30.2247 77.344 29.9779C75.5346 31.0883 73.6021 32.2805 71.4229 32.2805C69.7375 32.2805 68.9557 31.0471 68.9557 29.5258V29.4435C67.3107 30.5951 64.9672 32.3219 62.8706 32.3219C61.8424 32.3219 61.0201 31.6224 61.0201 30.5544C61.0201 29.7307 61.4312 28.9505 61.9245 28.2508L65.9956 22.7414C66.1193 22.5768 66.2417 22.3711 66.2417 22.2065C66.2417 22.1247 66.201 22.0419 66.119 22.0419C63.6516 22.0419 58.1005 28.2099 56.7023 30.0195L48.8078 40.1753L45.8885 40.1341L58.7992 23.7695C56.6203 25.3318 54.2352 26.4831 51.8917 27.7169C49.712 30.0602 46.7518 32.3221 43.3802 32.3221C42.0232 32.3221 40.7896 31.376 40.7896 29.9367C40.7896 29.6081 40.8305 29.238 40.8714 28.9089L39.7615 29.6906C38.0349 30.8422 35.8143 32.6096 33.6755 32.6096C32.9359 32.6096 32.4008 31.9516 32.4008 31.212C32.4008 30.3487 32.8948 29.6083 33.3469 28.9508L38.1576 22.207C38.2812 22.0841 38.3221 21.8786 38.3221 21.7138C38.3221 21.5492 38.1576 21.4263 37.993 21.4263C35.9786 21.4263 32.1133 24.8388 30.6333 26.0315L25.9867 32.2812H22.4508L28.331 25.25C27.0557 25.9078 25.8221 26.5245 24.5477 27.1414C21.5055 30.0604 18.0099 32.7333 13.6102 32.7333C10.2388 32.7333 7.89453 30.5549 7.89453 27.1823C7.89453 24.0984 9.16979 21.262 10.8138 18.7122C10.5263 18.7531 10.1977 18.7531 9.90937 18.7531C5.59219 18.7518 0 16.6549 0 11.5151C0 3.12734 12.3766 0.824738 18.6271 0.824738C20.3948 0.824738 22.1216 0.98854 23.849 1.23594L23.7661 1.5237ZM15.625 17.1487C19.4487 16.6549 23.2732 15.3802 26.7271 13.6125C29.3589 12.2964 36.9242 7.32109 36.9242 3.78489C36.9242 3.45573 36.513 3.33255 36.2664 3.33255C32.8122 3.33255 27.3437 7.15625 24.712 8.96562C21.2992 11.2685 18.3388 14.024 15.625 17.1487ZM36.0201 18.7518C39.0622 17.025 47.4096 10.4461 47.4096 7.03359C47.4096 6.95104 47.3271 6.86901 47.2451 6.86901C44.4904 6.86901 37.6648 16.5729 36.0201 18.7518ZM49.918 27.3458C49.7534 27.0583 49.6305 26.7701 49.6305 26.3997C49.6305 24.8786 51.0286 24.1799 52.344 24.0562C52.6315 23.5221 52.9609 22.9464 52.9609 22.3294C52.9609 21.7539 52.3852 21.5891 51.9331 21.5891C48.7672 21.5891 42.6401 27.4276 42.6401 30.5117C42.6401 31.0055 42.9276 31.4164 43.4216 31.4164C45.9706 31.4164 48.4786 29.2786 49.918 27.3458ZM81.6612 22.6581C81.6612 21.9185 81.1682 21.3836 80.3865 21.3836C77.3023 21.3836 71.2575 27.3867 71.2575 30.5536C71.2575 30.9646 71.587 31.3339 71.9979 31.3339C75.082 31.3339 81.6612 25.8247 81.6612 22.6581ZM107.772 22.3706C107.772 21.7948 107.484 21.0961 106.785 21.0961C103.618 21.0961 98.0263 27.5104 98.0263 30.4299C98.0263 30.9648 98.4372 31.3753 98.9721 31.3753C101.809 31.375 107.772 25.2898 107.772 22.3706Z" fill="#161413"/>
</svg>
