<svg width="15" height="13" viewBox="0 0 15 13" fill="none" xmlns="http://www.w3.org/2000/svg">
<path fill-rule="evenodd" clip-rule="evenodd" d="M3.23847 13V4.22847H0.180755V13H3.23847ZM1.7096 3.03087C2.77589 3.03087 3.43956 2.35731 3.43956 1.51556C3.41969 0.654866 2.77589 0 1.72983 0C0.683874 0 0 0.654866 0 1.51556C0 2.35731 0.663534 3.03087 1.68967 3.03087H1.7096Z" fill="#5C8694"/>
<path fill-rule="evenodd" clip-rule="evenodd" d="M4.93049 13H7.98818V8.10161C7.98818 7.83945 8.00805 7.57756 8.08879 7.39016C8.30984 6.86637 8.81296 6.32389 9.65766 6.32389C10.7641 6.32389 11.2067 7.12826 11.2067 8.30744V13H14.2641V7.97053C14.2641 5.27631 12.7556 4.02264 10.7439 4.02264C9.09435 4.02264 8.37019 4.90177 7.96784 5.50057H7.98826V4.22847H4.93058C4.9707 5.05153 4.93049 13 4.93049 13Z" fill="#5C8694"/>
</svg>
