<svg width="16" height="16" viewBox="0 0 16 16" fill="none" xmlns="http://www.w3.org/2000/svg">
<path d="M0.0641304 7.59821C0.0636682 8.93729 0.41513 10.2446 1.08321 11.3969L0 15.334L4.04742 14.2775C5.16261 14.8829 6.41808 15.202 7.69584 15.2025H7.6991C11.9067 15.2025 15.3322 11.7934 15.334 7.6041C15.3347 5.57365 14.5411 3.66457 13.0998 2.22841C11.6582 0.792246 9.74141 0.000876377 7.6991 0C3.49059 0 0.065891 3.40869 0.0641304 7.59821Z" fill="#5C8694"/>
<path fill-rule="evenodd" clip-rule="evenodd" d="M5.67137 4.84525C5.52172 4.52644 5.36426 4.52006 5.22193 4.51445C5.10545 4.5097 4.97222 4.51001 4.83916 4.51001C4.70593 4.51001 4.48954 4.55793 4.30656 4.74949C4.12342 4.94107 3.60742 5.40416 3.60742 6.34598C3.60742 7.2879 4.32325 8.19801 4.42297 8.32586C4.52287 8.45347 5.80478 10.4481 7.8348 11.2154C9.52208 11.853 9.86543 11.7262 10.2316 11.6943C10.5978 11.6624 11.4134 11.2313 11.5798 10.7843C11.7463 10.3373 11.7463 9.95419 11.6963 9.87418C11.6464 9.7944 11.5132 9.74649 11.3135 9.65082C11.1137 9.55507 10.1317 9.09191 9.94867 9.02802C9.76553 8.96422 9.63238 8.93235 9.49915 9.12401C9.366 9.31543 8.98347 9.74649 8.8669 9.87418C8.75041 10.0021 8.63385 10.0181 8.43412 9.92233C8.23432 9.82627 7.59101 9.62432 6.82789 8.97224C6.23409 8.46484 5.83325 7.83822 5.71668 7.64655C5.6002 7.45513 5.70425 7.35144 5.80439 7.25599C5.89413 7.17022 6.0042 7.03248 6.1041 6.92075C6.20376 6.80896 6.23701 6.72918 6.30358 6.60148C6.37024 6.47371 6.33691 6.36191 6.287 6.26616C6.23701 6.17041 5.84897 5.2238 5.67137 4.84525Z" fill="white"/>
</svg>
